<?xml version="1.0" encoding="UTF-8"?>
<!DOCTYPE svg PUBLIC "-//W3C//DTD SVG 1.1//EN" "http://www.w3.org/Graphics/SVG/1.1/DTD/svg11.dtd">
<!-- Creator: CorelDRAW X8 -->
<svg xmlns="http://www.w3.org/2000/svg" xml:space="preserve" width="3.10422in" height="0.952598in" version="1.1" style="shape-rendering:geometricPrecision; text-rendering:geometricPrecision; image-rendering:optimizeQuality; fill-rule:evenodd; clip-rule:evenodd"
viewBox="0 0 3104 953"
 xmlns:xlink="http://www.w3.org/1999/xlink">
 <defs>
  <style type="text/css">
   <![CDATA[
    .fil5 {fill:url(#id0)}
    .fil2 {fill:url(#id1)}
    .fil3 {fill:url(#id2)}
    .fil4 {fill:url(#id3)}
    .fil1 {fill:url(#id4)}
    .fil0 {fill:url(#id5)}
   ]]>
  </style>
  <linearGradient id="id0" gradientUnits="userSpaceOnUse" x1="374.335" y1="631.453" x2="436.138" y2="679.181">
   <stop offset="0" style="stop-opacity:1; stop-color:#00939A"/>
   <stop offset="1" style="stop-opacity:1; stop-color:#6AC5B3"/>
  </linearGradient>
  <linearGradient id="id1" gradientUnits="userSpaceOnUse" x1="-108.736" y1="334.862" x2="3101.38" y2="884.102">
   <stop offset="0" style="stop-opacity:1; stop-color:#E73943"/>
   <stop offset="0.121569" style="stop-opacity:1; stop-color:#E53B47"/>
   <stop offset="0.2" style="stop-opacity:1; stop-color:#E43E4B"/>
   <stop offset="0.309804" style="stop-opacity:1; stop-color:#CA4166"/>
   <stop offset="0.4" style="stop-opacity:1; stop-color:#AF4481"/>
   <stop offset="0.490196" style="stop-opacity:1; stop-color:#97428C"/>
   <stop offset="0.580392" style="stop-opacity:1; stop-color:#7F3F97"/>
   <stop offset="0.760784" style="stop-opacity:1; stop-color:#00939A"/>
   <stop offset="1" style="stop-opacity:1; stop-color:#6AC5B3"/>
  </linearGradient>
  <linearGradient id="id2" gradientUnits="userSpaceOnUse" xlink:href="#id1" x1="-92.1417" y1="237.858" x2="3117.98" y2="787.094">
  </linearGradient>
  <linearGradient id="id3" gradientUnits="userSpaceOnUse" xlink:href="#id1" x1="-75.9921" y1="143.465" x2="3134.13" y2="692.705">
  </linearGradient>
  <linearGradient id="id4" gradientUnits="userSpaceOnUse" xlink:href="#id1" x1="-129.035" y1="453.488" x2="3081.09" y2="1002.73">
  </linearGradient>
  <linearGradient id="id5" gradientUnits="userSpaceOnUse" xlink:href="#id1" x1="-118.26" y1="390.528" x2="3091.86" y2="939.768">
  </linearGradient>
 </defs>
 <g id="Layer_x0020_1">
  <metadata id="CorelCorpID_0Corel-Layer"/>
  <g id="_1898088442416">
   <polygon class="fil0" points="673,0 483,0 483,217 190,217 190,0 0,0 0,937 190,937 190,383 483,383 483,937 673,937 "/>
   <path class="fil1" d="M774 661c0,158 133,292 308,292l0 0c175,0 308,-134 308,-292 0,-159 -133,-292 -308,-292l0 0c-175,0 -308,133 -308,292zm186 0c0,-85 53,-138 122,-138l0 0c69,0 122,53 122,138l0 0c0,85 -53,138 -122,138l0 0c-69,0 -122,-53 -122,-138l0 0z"/>
   <path class="fil2" d="M2032 937l0 -552 -181 0 0 292c0,75 -46,122 -106,122l0 0c-59,0 -95,-37 -95,-101l0 0 0 -313 -181 0 0 339c0,150 79,229 207,229l0 0c60,0 100,-23 127,-45l0 0c16,-13 28,-28 38,-46l0 0 10 0 0 75 181 0z"/>
   <path class="fil3" d="M2133 539c0,140 146,168 244,191l0 0c48,11 85,23 85,47l0 0c0,22 -20,38 -74,38l0 0c-43,0 -67,-13 -83,-29l0 0c-9,-9 -15,-18 -18,-30l0 0 -181 0c8,37 24,70 47,99l0 0c39,48 109,98 235,98l0 0c175,0 260,-85 260,-181 0,-141 -147,-165 -243,-188l0 0c-50,-9 -86,-20 -86,-45l0 0c0,-22 21,-38 63,-38l0 0c37,0 59,14 70,27l0 0c8,7 12,17 15,27l0 0 175 0c-8,-34 -23,-65 -45,-93l0 0c-41,-46 -104,-93 -225,-93l0 0c-161,0 -239,83 -239,170l0 0z"/>
   <path class="fil4" d="M3104 549l0 -175 -56 0c-52,0 -85,23 -106,46l0 0c-13,12 -22,27 -29,44l0 0 -10 0 0 -79 -176 0 0 552 181 0 0 -282c0,-63 42,-106 106,-106l0 0 90 0z"/>
   <path class="fil5" d="M379 658c0,17 13,30 30,30l0 0c16,0 30,-13 30,-30 0,-16 -14,-30 -30,-30 -17,0 -30,14 -30,30l0 0z"/>
  </g>
 </g>
</svg>
