<?xml version="1.0" encoding="UTF-8"?>
<!DOCTYPE svg PUBLIC "-//W3C//DTD SVG 1.1//EN" "http://www.w3.org/Graphics/SVG/1.1/DTD/svg11.dtd">
<!-- Creator: CorelDRAW X8 -->
<svg xmlns="http://www.w3.org/2000/svg" xml:space="preserve" width="8.5in" height="11in" version="1.1" style="shape-rendering:geometricPrecision; text-rendering:geometricPrecision; image-rendering:optimizeQuality; fill-rule:evenodd; clip-rule:evenodd"
viewBox="0 0 8500 11000"
 xmlns:xlink="http://www.w3.org/1999/xlink">
 <g id="Layer_x0020_1">
  <metadata id="CorelCorpID_0Corel-Layer"/>
  <g id="_2068516820144">
   <g>
    <path fill="#333333" d="M-9854 3967c-68,-79 -1697,-1947 -4174,-1947 -2476,0 -4106,1868 -4174,1947l-76 89 76 88c68,79 1698,1947 4174,1947 2477,0 4106,-1868 4174,-1947l76 -88 -76 -89zm-2410 89c0,972 -791,1764 -1764,1764 -973,0 -1764,-792 -1764,-1764 0,-973 791,-1765 1764,-1765 973,0 1764,792 1764,1765zm-5650 -1c276,-287 1233,-1195 2611,-1584 -463,374 -760,945 -760,1585 0,639 296,1210 759,1583 -1376,-389 -2334,-1297 -2610,-1584zm5161 1585c463,-374 761,-945 761,-1584 0,-640 -297,-1211 -760,-1584 1376,389 2334,1297 2611,1584 -277,287 -1234,1195 -2612,1584z"/>
    <path fill="#333333" d="M-14028 1477c1145,0 2261,356 3318,1058l150 -226c-1086,-722 -2286,-1103 -3468,-1103 -943,0 -1877,234 -2776,696l124 242c860,-443 1752,-667 2652,-667z"/>
    <path fill="#333333" d="M-16946 2289l-135 -236c-145,84 -285,170 -415,256l151 226c124,-83 259,-166 399,-246z"/>
    <path fill="#333333" d="M-14028 6634c-1145,0 -2261,-356 -3317,-1058l-151 226c1087,722 2286,1103 3468,1103 944,0 1878,-234 2777,-696l-125 -242c-859,443 -1752,667 -2652,667z"/>
    <path fill="#333333" d="M-11110 5822l135 236c146,-83 285,-169 415,-256l-150 -226c-125,83 -259,166 -400,246z"/>
   </g>
   <g>
   </g>
   <g>
   </g>
   <g>
   </g>
   <g>
   </g>
   <g>
   </g>
   <g>
   </g>
   <g>
   </g>
   <g>
   </g>
   <g>
   </g>
   <g>
   </g>
   <g>
   </g>
   <g>
   </g>
   <g>
   </g>
   <g>
   </g>
   <g>
   </g>
  </g>
  <g id="_2068516816176">
   <g>
    <rect class="fil0" transform="matrix(0.5547 -0.8321 0.8321 0.5547 4779.71 2189.11)" width="1007" height="1007"/>
    <path class="fil0" d="M5025 8447c55,-20 106,-51 149,-93 95,-93 139,-221 121,-352l-236 -1772 0 -1259 1031 -368c129,-46 225,-159 249,-294l157 -862 1281 815 150 -236 -1386 -882c-3,-90 -36,-177 -95,-248 -79,-94 -194,-148 -316,-148 -57,0 -111,12 -160,33l-1115 -710 -150 236 1056 672c-17,37 -31,76 -37,118l-130 842 -820 277c-153,-135 -349,-211 -553,-211 -180,0 -353,58 -505,173l-43 35c-11,9 -240,217 -429,389l0 -443c0,-211 -150,-395 -350,-428 -122,-20 -247,14 -340,94 -94,80 -148,196 -148,319l0 1139c0,296 241,537 537,537 133,0 261,-49 360,-138l81 -73 0 621 -235 1761c-27,201 88,391 269,456 -223,63 -440,151 -645,267l-1577 894 137 243 1578 -894c808,-458 1813,-458 2621,0l1578 894 137 -243 -1577 -894c-206,-116 -422,-204 -645,-267zm-1909 -2973c-48,43 -109,67 -173,67 -142,0 -258,-116 -258,-258l0 -1139c0,-41 18,-80 50,-106 31,-27 72,-38 114,-31 65,10 116,77 116,152l0 1074 233 -212c0,0 634,-576 655,-595l35 -29c230,-172 556,-137 746,73l61 68 1149 -389 155 -1010c1,-2 2,-4 3,-7l239 153 -177 974c-7,37 -33,68 -69,81l-1215 434 0 1465 238 1799c6,44 -8,86 -39,117 -19,18 -58,47 -119,37 -58,-9 -106,-63 -115,-129l-262 -1964 -524 0 -263 1976c-5,39 -27,74 -61,96 -33,22 -74,28 -116,17 -62,-17 -103,-87 -94,-160l236 -1771 2 -1275 -547 492zm729 2885c69,-65 115,-152 128,-247l231 -1733 35 0 229 1721c14,102 63,193 133,259 -251,-32 -506,-32 -756,0z"/>
    <path class="fil0" d="M5059 3167c0,-462 -376,-838 -838,-838 -462,0 -838,376 -838,838 0,462 376,838 838,838 462,0 838,-376 838,-838zm-838 558c-308,0 -558,-250 -558,-558 0,-308 250,-559 558,-559 308,0 559,251 559,559 0,308 -251,558 -559,558z"/>
    <polygon class="fil0" points="7573,5122 7293,5122 7293,5401 7014,5401 7014,5680 7293,5680 7293,5960 7573,5960 7573,5680 7852,5680 7852,5401 7573,5401 "/>
    <polygon class="fil0" points="6456,6518 6456,6379 6595,6379 6595,6099 6456,6099 6456,5960 6176,5960 6176,6099 6037,6099 6037,6379 6176,6379 6176,6518 "/>
    <polygon class="fil0" points="7293,6379 7014,6379 7014,6658 6735,6658 6735,6937 7014,6937 7014,7216 7293,7216 7293,6937 7573,6937 7573,6658 7293,6658 "/>
    <polygon class="fil0" points="2127,2608 2406,2608 2406,2329 2685,2329 2685,2050 2406,2050 2406,1770 2127,1770 2127,2050 1847,2050 1847,2329 2127,2329 "/>
    <polygon class="fil0" points="1010,2189 1010,2050 1149,2050 1149,1770 1010,1770 1010,1631 730,1631 730,1770 591,1770 591,2050 730,2050 730,2189 "/>
    <polygon class="fil0" points="1429,3446 1429,3167 1708,3167 1708,2888 1429,2888 1429,2608 1149,2608 1149,2888 870,2888 870,3167 1149,3167 1149,3446 "/>
   </g>
  </g>
  <g id="_2068516815312">
  </g>
  <g id="_2068516817008">
  </g>
  <g id="_2068516816976">
  </g>
  <g id="_2068516816816">
  </g>
  <g id="_2068516816752">
  </g>
  <g id="_2068516816784">
  </g>
  <g id="_2068516816400">
  </g>
  <g id="_2068516816688">
  </g>
  <g id="_2068516814448">
  </g>
  <g id="_2068516814928">
  </g>
  <g id="_2068516814224">
  </g>
  <g id="_2068516814992">
  </g>
  <g id="_2068516813584">
  </g>
  <g id="_2068516811792">
  </g>
  <g id="_2068516812144">
  </g>
 </g>
</svg>
