<?xml version="1.0" encoding="UTF-8"?>
<!DOCTYPE svg PUBLIC "-//W3C//DTD SVG 1.1//EN" "http://www.w3.org/Graphics/SVG/1.1/DTD/svg11.dtd">
<!-- Creator: CorelDRAW X8 -->
<svg xmlns="http://www.w3.org/2000/svg" xml:space="preserve" width="8.5in" height="11in" version="1.1" style="shape-rendering:geometricPrecision; text-rendering:geometricPrecision; image-rendering:optimizeQuality; fill-rule:evenodd; clip-rule:evenodd"
viewBox="0 0 8500 11000"
 xmlns:xlink="http://www.w3.org/1999/xlink"
 enable-background="new 0 0 463 463">
 <g id="Layer_x0020_1">
  <metadata id="CorelCorpID_0Corel-Layer"/>
  <g id="_2068473730112">
   <g>
    <path fill="#333333" d="M-9854 3967c-68,-79 -1697,-1947 -4174,-1947 -2476,0 -4106,1868 -4174,1947l-76 89 76 88c68,79 1698,1947 4174,1947 2477,0 4106,-1868 4174,-1947l76 -88 -76 -89zm-2410 89c0,972 -791,1764 -1764,1764 -973,0 -1764,-792 -1764,-1764 0,-973 791,-1765 1764,-1765 973,0 1764,792 1764,1765zm-5650 -1c276,-287 1233,-1195 2611,-1584 -463,374 -760,945 -760,1585 0,639 296,1210 759,1583 -1376,-389 -2334,-1297 -2610,-1584zm5161 1585c463,-374 761,-945 761,-1584 0,-640 -297,-1211 -760,-1584 1376,389 2334,1297 2611,1584 -277,287 -1234,1195 -2612,1584z"/>
    <path fill="#333333" d="M-14028 1477c1145,0 2261,356 3318,1058l150 -226c-1086,-722 -2286,-1103 -3468,-1103 -943,0 -1877,234 -2776,696l124 242c860,-443 1752,-667 2652,-667z"/>
    <path fill="#333333" d="M-16946 2289l-135 -236c-145,84 -285,170 -415,256l151 226c124,-83 259,-166 399,-246z"/>
    <path fill="#333333" d="M-14028 6634c-1145,0 -2261,-356 -3317,-1058l-151 226c1087,722 2286,1103 3468,1103 944,0 1878,-234 2777,-696l-125 -242c-859,443 -1752,667 -2652,667z"/>
    <path fill="#333333" d="M-11110 5822l135 236c146,-83 285,-169 415,-256l-150 -226c-125,83 -259,166 -400,246z"/>
   </g>
   <g>
   </g>
   <g>
   </g>
   <g>
   </g>
   <g>
   </g>
   <g>
   </g>
   <g>
   </g>
   <g>
   </g>
   <g>
   </g>
   <g>
   </g>
   <g>
   </g>
   <g>
   </g>
   <g>
   </g>
   <g>
   </g>
   <g>
   </g>
   <g>
   </g>
  </g>
  <g id="_2068473726304">
   <g>
    <rect class="fil0" transform="matrix(0.5547 -0.8321 0.8321 0.5547 -10332.1 8007.86)" width="1007" height="1007"/>
    <path class="fil0" d="M-10087 14266c55,-20 106,-51 150,-93 94,-93 138,-221 121,-353l-237 -1772 0 -1258 1031 -368c129,-47 225,-159 249,-294l157 -862 1281 815 150 -236 -1386 -882c-3,-90 -36,-178 -95,-249 -78,-93 -193,-147 -316,-147 -57,0 -110,12 -160,33l-1115 -710 -150 236 1057 672c-18,37 -32,75 -38,117l-130 843 -819 277c-153,-135 -350,-212 -553,-212 -180,0 -353,59 -506,173l-43 36c-11,9 -239,217 -429,389l0 -443c0,-212 -150,-396 -349,-428 -123,-20 -247,14 -341,94 -94,80 -148,196 -148,319l0 1139c0,296 241,537 537,537 134,0 261,-49 360,-138l81 -73 0 620 -235 1762c-27,201 88,391 269,456 -223,62 -439,151 -644,267l-1578 894 137 243 1578 -894c809,-458 1813,-458 2621,0l1578 894 138 -243 -1578 -894c-205,-116 -422,-204 -645,-267zm-1909 -2973c-48,43 -109,66 -173,66 -142,0 -258,-115 -258,-257l0 -1139c0,-41 18,-80 50,-106 32,-27 72,-38 115,-32 64,11 115,78 115,153l0 1074 233 -212c0,0 634,-576 655,-595l36 -29c229,-172 555,-138 745,73l61 68 1149 -389 156 -1010c0,-3 1,-4 2,-7l239 153 -177 974c-6,37 -33,68 -68,81l-1216 434 0 1465 239 1799c5,43 -9,86 -40,116 -18,18 -58,47 -119,38 -58,-9 -106,-63 -115,-130l-262 -1963 -523 0 -264 1975c-5,40 -27,75 -60,97 -34,22 -75,28 -116,17 -63,-17 -104,-87 -95,-160l237 -1771 1 -1275 -547 492zm729 2884c69,-65 115,-151 128,-247l231 -1733 35 0 229 1721c14,103 63,193 133,260 -251,-33 -505,-33 -756,-1z"/>
    <path class="fil0" d="M-10053 8986c0,-462 -375,-838 -838,-838 -462,0 -837,376 -837,838 0,462 375,837 837,837 463,0 838,-375 838,-837zm-837 558c-309,0 -559,-250 -559,-558 0,-308 250,-559 559,-559 308,0 558,251 558,559 0,308 -250,558 -558,558z"/>
    <polygon class="fil0" points="-7539,10941 -7818,10941 -7818,11220 -8098,11220 -8098,11499 -7818,11499 -7818,11778 -7539,11778 -7539,11499 -7260,11499 -7260,11220 -7539,11220 "/>
    <polygon class="fil0" points="-8656,12337 -8656,12197 -8517,12197 -8517,11918 -8656,11918 -8656,11778 -8936,11778 -8936,11918 -9075,11918 -9075,12197 -8936,12197 -8936,12337 "/>
    <polygon class="fil0" points="-7818,12197 -8098,12197 -8098,12477 -8377,12477 -8377,12756 -8098,12756 -8098,13035 -7818,13035 -7818,12756 -7539,12756 -7539,12477 -7818,12477 "/>
    <polygon class="fil0" points="-12985,8427 -12706,8427 -12706,8148 -12427,8148 -12427,7868 -12706,7868 -12706,7589 -12985,7589 -12985,7868 -13264,7868 -13264,8148 -12985,8148 "/>
    <polygon class="fil0" points="-14102,8008 -14102,7868 -13963,7868 -13963,7589 -14102,7589 -14102,7450 -14381,7450 -14381,7589 -14521,7589 -14521,7868 -14381,7868 -14381,8008 "/>
    <polygon class="fil0" points="-13683,9265 -13683,8986 -13404,8986 -13404,8706 -13683,8706 -13683,8427 -13963,8427 -13963,8706 -14242,8706 -14242,8986 -13963,8986 -13963,9265 "/>
   </g>
  </g>
  <g id="_2068473726048">
  </g>
  <g id="_2068473725920">
  </g>
  <g id="_2068473724768">
  </g>
  <g id="_2068473724448">
  </g>
  <g id="_2068473726336">
  </g>
  <g id="_2068473724704">
  </g>
  <g id="_2068473724384">
  </g>
  <g id="_2068473726112">
  </g>
  <g id="_2068473723936">
  </g>
  <g id="_2068473723136">
  </g>
  <g id="_2068473724288">
  </g>
  <g id="_2068473723424">
  </g>
  <g id="_2068473723456">
  </g>
  <g id="_2068473723840">
  </g>
  <g id="_2068473722944">
  </g>
  <g id="_2068473720928">
   <path id="Diamond" class="fil0" d="M23608 4069l-1851 -1775c-23,-22 -54,-60 -86,-60l-3998 0c-31,0 -62,38 -85,60l-1851 1762c-46,44 -52,123 -13,173 27,34 3828,4934 3857,4965 12,15 30,28 42,34 35,14 63,16 98,0 13,-5 30,-16 43,-31 2,-2 5,-2 6,-5l3850 -4956c40,-51 34,-123 -12,-167zm-5969 -1507l620 1411 -2113 0 1493 -1411zm1050 1411l983 -1399 984 1399 -1967 0zm2066 248l-1083 4332 -1082 -4332 2165 0zm-843 -1738l1557 0 -599 1363 -958 -1363zm-1437 1363l-599 -1363 1557 0 -958 1363zm-141 375l1075 4302 -3341 -4302 2266 0zm2677 0l2266 0 -3341 4302 1075 -4302zm74 -248l621 -1411 1493 1411 -2114 0z"/>
  </g>
  <g id="_2068473721248">
   <g>
    <path class="fil0" d="M7744 3279c-18,-43 -60,-71 -107,-71l-745 0 0 -746c0,-46 -29,-88 -72,-106 -43,-18 -92,-8 -125,25l-891 891c-161,161 -250,375 -250,603l0 508 -188 188c-503,-464 -1174,-748 -1911,-748 -1555,0 -2821,1266 -2821,2821 0,1556 1266,2821 2821,2821 1556,0 2822,-1265 2822,-2821 0,-736 -284,-1407 -748,-1910l188 -188 508 0c227,0 442,-89 603,-250l891 -891c33,-33 43,-83 25,-126zm-1959 596c0,-166 64,-323 182,-440l694 -694 0 535 -876 876 0 -277zm261 2769c0,1429 -1162,2591 -2591,2591 -1428,0 -2590,-1162 -2590,-2591 0,-1428 1162,-2590 2590,-2590 673,0 1287,258 1748,680l-359 359c-369,-331 -856,-532 -1389,-532 -1148,0 -2083,935 -2083,2083 0,1149 935,2083 2083,2083 1149,0 2084,-934 2084,-2083 0,-533 -202,-1019 -532,-1388l359 -359c422,461 680,1074 680,1747zm-2214 0c0,208 -169,377 -377,377 -207,0 -376,-169 -376,-377 0,-208 169,-376 376,-376 62,0 121,15 172,41l-253 254c-45,45 -45,118 0,163 22,22 52,33 81,33 30,0 60,-11 82,-33l253 -254c27,52 42,110 42,172zm-37 -503c-97,-66 -214,-104 -340,-104 -334,0 -607,272 -607,607 0,335 273,607 607,607 335,0 608,-272 608,-607 0,-126 -39,-243 -105,-340l362 -362c156,192 250,436 250,702 0,615 -500,1115 -1115,1115 -614,0 -1114,-500 -1114,-1115 0,-614 500,-1114 1114,-1114 266,0 511,93 702,249l-362 362zm526 -526c-234,-197 -536,-316 -866,-316 -741,0 -1345,603 -1345,1345 0,742 604,1345 1345,1345 742,0 1346,-603 1346,-1345 0,-329 -119,-631 -317,-866l360 -359c288,327 464,756 464,1225 0,1022 -831,1853 -1853,1853 -1021,0 -1852,-831 -1852,-1853 0,-1021 831,-1852 1852,-1852 470,0 899,175 1226,464l-360 359zm2344 -1482c-118,117 -274,182 -440,182l-277 0 876 -876 535 0 -694 694z"/>
   </g>
  </g>
 </g>
</svg>
