<?xml version="1.0" encoding="UTF-8"?>
<!DOCTYPE svg PUBLIC "-//W3C//DTD SVG 1.1//EN" "http://www.w3.org/Graphics/SVG/1.1/DTD/svg11.dtd">
<!-- Creator: CorelDRAW X8 -->
<svg xmlns="http://www.w3.org/2000/svg" xml:space="preserve" width="8.5in" height="11in" version="1.1" style="shape-rendering:geometricPrecision; text-rendering:geometricPrecision; image-rendering:optimizeQuality; fill-rule:evenodd; clip-rule:evenodd"
viewBox="0 0 8500 11000"
 xmlns:xlink="http://www.w3.org/1999/xlink">
 <g id="Layer_x0020_1">
  <metadata id="CorelCorpID_0Corel-Layer"/>
  <g id="_2068518633920">
   <g>
    <path fill="#333333" d="M8424 5412c-68,-80 -1697,-1948 -4174,-1948 -2477,0 -4106,1868 -4174,1948l-76 88 76 88c68,80 1697,1948 4174,1948 2477,0 4106,-1868 4174,-1948l76 -88 -76 -88zm-2410 88c0,973 -791,1764 -1764,1764 -973,0 -1764,-791 -1764,-1764 0,-973 791,-1764 1764,-1764 973,0 1764,791 1764,1764zm-5650 0c276,-287 1233,-1195 2611,-1584 -463,373 -761,944 -761,1584 0,639 297,1210 760,1584 -1376,-390 -2334,-1297 -2610,-1584zm5161 1584c463,-373 761,-944 761,-1584 0,-639 -297,-1210 -760,-1584 1376,390 2334,1297 2610,1584 -276,287 -1233,1195 -2611,1584z"/>
    <path fill="#333333" d="M4250 2922c1145,0 2261,355 3318,1057l150 -226c-1087,-721 -2286,-1103 -3468,-1103 -944,0 -1878,234 -2776,697l124 241c860,-442 1752,-666 2652,-666z"/>
    <path fill="#333333" d="M1332 3733l-135 -235c-145,83 -285,169 -415,255l150 226c125,-83 260,-165 400,-246z"/>
    <path fill="#333333" d="M4250 8078c-1145,0 -2261,-355 -3318,-1057l-150 226c1086,721 2286,1103 3468,1103 944,0 1878,-235 2776,-697l-124 -241c-860,442 -1752,666 -2652,666z"/>
    <path fill="#333333" d="M7168 7267l135 235c145,-83 285,-169 415,-255l-150 -226c-125,83 -260,165 -400,246z"/>
   </g>
   <g>
   </g>
   <g>
   </g>
   <g>
   </g>
   <g>
   </g>
   <g>
   </g>
   <g>
   </g>
   <g>
   </g>
   <g>
   </g>
   <g>
   </g>
   <g>
   </g>
   <g>
   </g>
   <g>
   </g>
   <g>
   </g>
   <g>
   </g>
   <g>
   </g>
  </g>
 </g>
</svg>
