<?xml version="1.0" encoding="UTF-8"?>
<!DOCTYPE svg PUBLIC "-//W3C//DTD SVG 1.1//EN" "http://www.w3.org/Graphics/SVG/1.1/DTD/svg11.dtd">
<!-- Creator: CorelDRAW X8 -->
<svg xmlns="http://www.w3.org/2000/svg" xml:space="preserve" width="0.872402in" height="0.94615in" version="1.1" style="shape-rendering:geometricPrecision; text-rendering:geometricPrecision; image-rendering:optimizeQuality; fill-rule:evenodd; clip-rule:evenodd"
viewBox="0 0 642 696"
 xmlns:xlink="http://www.w3.org/1999/xlink">
 <g id="Layer_x0020_1">
  <metadata id="CorelCorpID_0Corel-Layer"/>
  <g id="_2388720909472">
   <path fill="none" stroke="#ED3237" stroke-width="20.4324" d="M313 631c-168,-4 -303,-142 -303,-310 0,-172 139,-311 311,-311 171,0 310,139 310,311 0,87 -36,170 -100,229"/>
   <path class="fil1" fill="#E73943" fill-rule="nonzero" d="M246 192l166 0 0 0c-10,15 -15,23 -16,25l-45 0c6,7 11,15 13,26l47 0c1,0 1,0 1,0 -11,16 -16,24 -16,24l-31 0c-1,8 -5,18 -12,30 -9,11 -18,19 -27,22 -16,8 -31,12 -46,12l0 0c0,1 3,6 11,14l82 99 0 5c0,0 -1,1 -1,1l-36 0c-65,-76 -98,-114 -98,-114l0 -23 1 -1c6,1 12,1 20,1 36,0 59,-12 68,-35 1,-4 2,-7 2,-11l-99 0c0,0 -1,0 -1,-1 11,-16 17,-23 17,-23l79 0 0 -1c-5,-9 -14,-16 -27,-21 -9,-3 -17,-4 -24,-4l-44 0 0 -1c10,-16 16,-24 16,-24z"/>
   <g>
    <path fill="none" stroke="#ED3237" stroke-width="20.4324" d="M421 661c-1,-34 -1,-69 -1,-103 18,-19 31,-44 36,-78 13,-2 24,1 25,27 1,8 1,17 1,26 2,10 6,17 18,15 19,0 38,0 57,0 17,1 16,26 1,31 -1,24 -1,47 -2,71 -1,19 -15,25 -33,27 -20,0 -41,0 -61,0 -18,-2 -30,-8 -41,-16z"/>
    <rect fill="none" stroke="#ED3237" stroke-width="20.4324" x="308" y="534" width="82.4152" height="151.413" rx="11" ry="11"/>
    <circle fill="#ED3237" cx="350" cy="647" r="19"/>
   </g>
  </g>
 </g>
</svg>
