<?xml version="1.0" encoding="UTF-8"?>
<!DOCTYPE svg PUBLIC "-//W3C//DTD SVG 1.1//EN" "http://www.w3.org/Graphics/SVG/1.1/DTD/svg11.dtd">
<!-- Creator: CorelDRAW X8 -->
<svg xmlns="http://www.w3.org/2000/svg" xml:space="preserve" width="0.86276in" height="0.935701in" version="1.1" style="shape-rendering:geometricPrecision; text-rendering:geometricPrecision; image-rendering:optimizeQuality; fill-rule:evenodd; clip-rule:evenodd"
viewBox="0 0 107 116"
 xmlns:xlink="http://www.w3.org/1999/xlink">
 <defs>
 </defs>
 <g id="Layer_x0020_1">
  <metadata id="CorelCorpID_0Corel-Layer"/>
  <g id="_2198379325952">
   <g id="_2388720917888">
    <path fill="none" stroke="#7F3F97" stroke-width="2.55721" d="M52 105c-28,0 -51,-24 -51,-52 0,-29 23,-52 52,-52 29,0 52,23 52,52 0,15 -6,29 -17,39"/>
    <path fill="#7F3F97" fill-rule="nonzero" d="M41 32l28 0 0 0c-2,2 -3,3 -3,4l-8 0c1,1 2,2 2,4l8 0c0,0 1,0 1,0 -2,3 -3,4 -3,4l-5 0c-1,2 -1,3 -2,5 -2,2 -3,3 -5,4 -3,1 -5,2 -8,2l0 0c0,0 1,1 2,2l14 17 0 1c0,0 0,0 0,0l-6 0c-11,-13 -17,-19 -17,-19l0 -4 1 0c1,0 2,0 3,0 6,0 10,-2 11,-6 1,-1 1,-1 1,-2l-17 0c0,0 0,0 0,0 2,-2 3,-4 3,-4l13 0 0 0c-1,-2 -2,-3 -4,-4 -2,0 -3,0 -5,0l-7 0 0 -1c2,-2 3,-3 3,-3l0 0z"/>
    <g>
     <path fill="none" fill-rule="nonzero" stroke="#7F3F97" stroke-width="2.55721" d="M70 110c0,-6 0,-11 0,-17 3,-3 5,-7 6,-13 2,-1 4,0 4,5 0,1 0,2 0,4 0,1 1,3 3,2 4,0 7,0 10,0 3,1 2,5 0,5 0,5 0,8 0,13 0,3 -3,4 -6,4 -3,0 -7,0 -10,0 -3,0 -5,-2 -7,-3l0 0z"/>
     <path fill="none" fill-rule="nonzero" stroke="#7F3F97" stroke-width="2.55721" d="M53 89l10 0c1,0 2,1 2,2l0 21c0,1 -1,2 -2,2l-10 0c-1,0 -2,-1 -2,-2l0 -21c0,-1 1,-2 2,-2z"/>
     <circle fill="#7F3F97" cx="58" cy="108" r="3"/>
    </g>
   </g>
  </g>
 </g>
</svg>
