<?xml version="1.0" encoding="UTF-8"?>
<!DOCTYPE svg PUBLIC "-//W3C//DTD SVG 1.1//EN" "http://www.w3.org/Graphics/SVG/1.1/DTD/svg11.dtd">
<!-- Creator: CorelDRAW X8 -->
<svg xmlns="http://www.w3.org/2000/svg" xml:space="preserve" width="0.91385in" height="0.935913in" version="1.1" style="shape-rendering:geometricPrecision; text-rendering:geometricPrecision; image-rendering:optimizeQuality; fill-rule:evenodd; clip-rule:evenodd"
viewBox="0 0 111 114"
 xmlns:xlink="http://www.w3.org/1999/xlink">
 <g id="Layer_x0020_1">
  <metadata id="CorelCorpID_0Corel-Layer"/>
  <path fill="none" stroke="#ED3237" stroke-width="3.37292" d="M56 4c30,1 53,25 53,54 0,30 -24,54 -54,54 -29,0 -53,-24 -53,-54 0,-26 18,-48 44,-53"/>
  <polyline fill="none" stroke="#ED3237" stroke-width="3.37292" points="38,2 46,5 42,13 "/>
  <g id="_2388525015328">
   <g>
    <rect fill="#E73943" x="54" y="13" width="2.34481" height="5.66734"/>
    <rect fill="#E73943" x="54" y="98" width="2.34481" height="5.66734"/>
   </g>
   <g>
    <rect fill="#E73943" transform="matrix(0.792546 0.457577 -0.457577 0.792546 77.1083 18.4756)" width="2.5622" height="6.19278"/>
    <rect fill="#E73943" transform="matrix(0.792546 0.457577 -0.457577 0.792546 34.6523 92.0116)" width="2.5622" height="6.19278"/>
   </g>
   <g>
    <rect fill="#E73943" transform="matrix(0.457577 0.792546 -0.792546 0.457577 94.1146 34.6236)" width="2.5622" height="6.19278"/>
    <rect fill="#E73943" transform="matrix(0.457577 0.792546 -0.792546 0.457577 20.5786 77.0797)" width="2.5622" height="6.19278"/>
   </g>
   <g>
    <rect fill="#E73943" transform="matrix(2.42322E-14 0.915153 -0.915153 2.42322E-14 100.769 57.1114)" width="2.5622" height="6.19278"/>
    <rect fill="#E73943" transform="matrix(2.42322E-14 0.915153 -0.915153 2.42322E-14 15.8564 57.1114)" width="2.5622" height="6.19278"/>
   </g>
   <g>
    <rect fill="#E73943" transform="matrix(-0.457577 0.792546 -0.792546 -0.457577 95.287 79.9134)" width="2.5622" height="6.19278"/>
    <rect fill="#E73943" transform="matrix(-0.457577 0.792546 -0.792546 -0.457577 21.751 37.4573)" width="2.5622" height="6.19278"/>
   </g>
   <g>
    <rect fill="#E73943" transform="matrix(-0.792546 0.457577 -0.457577 -0.792546 79.139 96.9197)" width="2.5622" height="6.19278"/>
    <rect fill="#E73943" transform="matrix(-0.792546 0.457577 -0.457577 -0.792546 36.6829 23.3836)" width="2.5622" height="6.19278"/>
   </g>
   <path fill="#E73943" d="M59 66l-5 0 0 -21c-2,1 -5,3 -8,4l0 -5c2,-1 3,-2 5,-3 2,-1 3,-3 4,-5l4 0 0 30z"/>
   <path fill="#E73943" d="M43 85l0 -5 -4 -6 2 0 3 4 3 -4 2 0 -4 6 0 5 -2 0zm11 -3l2 1c0,0 0,1 -1,2 -1,0 -1,0 -2,0 -2,0 -3,0 -3,-1 -1,-1 -1,-2 -1,-3 0,-1 0,-2 1,-3 1,-1 2,-1 3,-1 1,0 2,0 3,1 0,1 1,2 1,3l-6 0c0,1 0,2 1,2 0,0 0,1 1,1 0,0 1,-1 1,-1 0,0 0,0 0,-1zm0 -2c0,0 0,-1 0,-1 0,-1 -1,-1 -1,-1 -1,0 -1,0 -1,1 -1,0 -1,1 -1,1l3 0zm6 -1l-2 0c0,-1 1,-1 1,-2 1,0 1,0 2,0 1,0 2,0 3,0 0,0 0,0 1,1 0,0 0,1 0,2l0 2c0,1 0,1 0,2 0,0 0,1 0,1l-2 0c0,0 0,0 0,-1 0,0 0,0 0,0 0,0 -1,1 -1,1 -1,0 -1,0 -2,0 0,0 -1,0 -2,-1 0,0 0,-1 0,-1 0,-1 0,-1 0,-2 0,0 1,0 1,0 0,-1 1,-1 2,-1 1,0 1,0 2,0l0 -1c0,0 0,0 -1,0 0,-1 0,-1 -1,-1 0,0 0,0 -1,0 0,1 0,1 0,1zm3 2c-1,0 -1,0 -2,0 0,0 -1,1 -1,1 0,0 0,0 0,0 0,1 0,1 0,1 0,0 1,1 1,1 0,0 1,-1 1,-1 0,0 1,0 1,0 0,-1 0,-1 0,-2l0 0zm6 4l-2 0 0 -8 2 0 0 1c0,-1 1,-1 1,-1 0,0 0,0 1,0 0,0 1,0 1,0l-1 2c0,0 0,0 -1,0 0,0 0,0 0,0 -1,0 -1,0 -1,1 0,0 0,1 0,2l0 3z"/>
  </g>
 </g>
</svg>
