<?xml version="1.0" encoding="UTF-8"?>
<!DOCTYPE svg PUBLIC "-//W3C//DTD SVG 1.1//EN" "http://www.w3.org/Graphics/SVG/1.1/DTD/svg11.dtd">
<!-- Creator: CorelDRAW X8 -->
<svg xmlns="http://www.w3.org/2000/svg" xml:space="preserve" width="0.941122in" height="1.03854in" version="1.1" style="shape-rendering:geometricPrecision; text-rendering:geometricPrecision; image-rendering:optimizeQuality; fill-rule:evenodd; clip-rule:evenodd"
viewBox="0 0 125 138"
 xmlns:xlink="http://www.w3.org/1999/xlink">
 <defs>
 </defs>
 <g id="Layer_x0020_1">
  <metadata id="CorelCorpID_0Corel-Layer"/>
  <g id="_2198614163632">
   <g id="_2388824237200">
    <g>
     <path fill="none" stroke="#7F3F97" stroke-width="2.74555" d="M73 70c0,-7 0,-14 0,-21 -1,-7 -6,-10 -10,-12 -13,0 -24,0 -37,0 -7,2 -12,6 -13,13 0,10 0,19 0,29 0,6 3,10 8,11 8,0 15,0 22,0 9,-3 6,-11 0,-11 -4,-2 -10,-3 -14,-4 0,-6 0,-10 0,-15"/>
     <line fill="none" stroke="#7F3F97" stroke-width="2.74555" x1="40" y1="77" x2="110" y2= "77" />
     <line fill="none" stroke="#7F3F97" stroke-width="2.74555" x1="21" y1="90" x2="21" y2= "138" />
     <polyline fill="none" stroke="#7F3F97" stroke-width="2.74555" points="47,136 47,109 53,103 "/>
     <line fill="none" stroke="#7F3F97" stroke-width="2.74555" x1="69" y1="77" x2="69" y2= "138" />
     <path fill="none" stroke="#7F3F97" stroke-width="2.74555" d="M69 89l18 -2c5,-1 8,-4 8,-10"/>
     <path fill="none" stroke="#7F3F97" stroke-width="2.74555" d="M21 102l-8 0c-6,0 -12,-6 -12,-12l0 -43c0,-5 6,-10 12,-10l11 0"/>
     <g>
      <path fill="none" stroke="#7F3F97" stroke-width="2.74555" d="M44 1c10,0 13,8 13,18 0,8 -5,15 -13,15 -7,0 -12,-7 -12,-15 0,-10 2,-18 12,-18z"/>
      <path fill="none" stroke="#7F3F97" stroke-width="2.74555" d="M56 10c1,3 1,7 1,9l-13 0 0 -9 12 0z"/>
     </g>
    </g>
    <g>
     <circle fill="#7F3F97" cx="113" cy="77" r="1"/>
     <g>
      <circle fill="#7F3F97" cx="116" cy="75" r="1"/>
      <circle fill="#7F3F97" cx="116" cy="80" r="1"/>
     </g>
     <g>
      <circle fill="#7F3F97" cx="119" cy="77" r="1"/>
      <circle fill="#7F3F97" cx="119" cy="72" r="1"/>
      <circle fill="#7F3F97" cx="119" cy="83" r="1"/>
     </g>
     <g>
      <circle fill="#7F3F97" cx="123" cy="75" r="1"/>
      <circle fill="#7F3F97" cx="123" cy="80" r="1"/>
      <circle fill="#7F3F97" cx="123" cy="70" r="1"/>
      <circle fill="#7F3F97" cx="123" cy="85" r="1"/>
     </g>
    </g>
   </g>
  </g>
 </g>
</svg>
