<?xml version="1.0" encoding="UTF-8"?>
<!DOCTYPE svg PUBLIC "-//W3C//DTD SVG 1.1//EN" "http://www.w3.org/Graphics/SVG/1.1/DTD/svg11.dtd">
<!-- Creator: CorelDRAW X8 -->
<svg xmlns="http://www.w3.org/2000/svg" xml:space="preserve" width="0.819575in" height="0.90578in" version="1.1" style="shape-rendering:geometricPrecision; text-rendering:geometricPrecision; image-rendering:optimizeQuality; fill-rule:evenodd; clip-rule:evenodd"
viewBox="0 0 95 105"
 xmlns:xlink="http://www.w3.org/1999/xlink">
 <g id="Layer_x0020_1">
  <metadata id="CorelCorpID_0Corel-Layer"/>
  <g id="_2388824226480">
   <g>
    <path fill="none" stroke="#ED3237" stroke-width="3.22085" d="M56 54c0,-5 0,-11 0,-16 -1,-7 -4,-8 -8,-9 -9,0 -19,0 -28,0 -6,1 -9,4 -10,10 0,7 0,14 0,22 0,4 3,7 7,8 6,0 11,0 17,0 5,-2 3,-9 0,-9 -4,-1 -8,-2 -12,-3 0,-4 0,-7 0,-11"/>
    <line fill="none" stroke="#ED3237" stroke-width="3.22085" x1="31" y1="59" x2="85" y2= "59" />
    <line fill="none" stroke="#ED3237" stroke-width="3.22085" x1="17" y1="69" x2="17" y2= "105" />
    <polyline fill="none" stroke="#ED3237" stroke-width="3.22085" points="36,105 36,84 41,79 "/>
    <line fill="none" stroke="#ED3237" stroke-width="3.22085" x1="53" y1="59" x2="53" y2= "105" />
    <path fill="none" stroke="#ED3237" stroke-width="3.22085" d="M53 68l14 -1c4,-1 6,-3 5,-8"/>
    <path fill="none" stroke="#ED3237" stroke-width="3.22085" d="M17 78l-7 0c-5,0 -8,-4 -8,-8l0 -33c0,-5 3,-8 8,-8l9 0"/>
    <g>
     <path fill="none" stroke="#ED3237" stroke-width="3.22085" d="M34 2c8,0 10,5 10,12 0,7 -5,12 -10,12 -6,0 -10,-5 -10,-12 0,-7 2,-12 10,-12z"/>
     <path fill="none" stroke="#ED3237" stroke-width="3.22085" d="M43 8c1,2 1,5 1,7l-10 0 0 -7 9 0z"/>
    </g>
   </g>
   <g>
    <circle fill="#E73943" cx="86" cy="59" r="1"/>
    <g>
     <circle fill="#E73943" cx="89" cy="57" r="1"/>
     <circle fill="#E73943" cx="89" cy="61" r="1"/>
    </g>
    <g>
     <circle fill="#E73943" cx="91" cy="59" r="1"/>
     <circle fill="#E73943" cx="91" cy="55" r="1"/>
     <circle fill="#E73943" cx="91" cy="63" r="1"/>
    </g>
    <g>
     <circle fill="#E73943" cx="94" cy="57" r="1"/>
     <circle fill="#E73943" cx="94" cy="61" r="1"/>
     <circle fill="#E73943" cx="94" cy="54" r="1"/>
     <circle fill="#E73943" cx="94" cy="65" r="1"/>
    </g>
   </g>
  </g>
 </g>
</svg>
