<?xml version="1.0" encoding="UTF-8"?>
<!DOCTYPE svg PUBLIC "-//W3C//DTD SVG 1.1//EN" "http://www.w3.org/Graphics/SVG/1.1/DTD/svg11.dtd">
<!-- Creator: CorelDRAW X8 -->
<svg xmlns="http://www.w3.org/2000/svg" xml:space="preserve" width="0.748835in" height="0.825701in" version="1.1" style="shape-rendering:geometricPrecision; text-rendering:geometricPrecision; image-rendering:optimizeQuality; fill-rule:evenodd; clip-rule:evenodd"
viewBox="0 0 1108 1222"
 xmlns:xlink="http://www.w3.org/1999/xlink">
 <defs>
  <style type="text/css">
   <![CDATA[
    .str0 {stroke:#E73943;stroke-width:61.6715}
    .fil0 {fill:none}
   ]]>
  </style>
 </defs>
 <g id="Layer_x0020_1">
  <metadata id="CorelCorpID_0Corel-Layer"/>
  <g id="_1658387557968">
   <g id="_1549737141104">
    <path class="fil0 str0" d="M554 31c228,0 251,136 251,273 45,23 45,45 45,91 0,45 -23,114 -68,114 -46,91 -137,159 -228,159 -91,0 -182,-68 -227,-159 -46,-23 -69,-69 -69,-114 0,-23 23,-46 46,-68 0,-160 23,-296 250,-296l0 0z"/>
    <path class="fil0 str0" d="M54 1191l1001 0c23,0 23,-22 23,-22l0 -228c0,-114 -251,-182 -365,-228l-91 251 -45 -137 45 -45 -136 0 45 68 -68 91 -91 -228c-91,46 -341,114 -341,228l0 228c0,0 23,22 23,22l0 0z"/>
    <rect class="fil0 str0" x="736" y="987" width="194" height="117"/>
    <path class="fil0 str0" d="M372 76c46,205 228,182 433,160"/>
    <path class="fil0 str0" d="M440 190c-22,46 -68,68 -136,91"/>
   </g>
  </g>
 </g>
</svg>
