<?xml version="1.0" encoding="UTF-8"?>
<!DOCTYPE svg PUBLIC "-//W3C//DTD SVG 1.1//EN" "http://www.w3.org/Graphics/SVG/1.1/DTD/svg11.dtd">
<!-- Creator: CorelDRAW X8 -->
<svg xmlns="http://www.w3.org/2000/svg" xml:space="preserve" width="0.866697in" height="0.860106in" version="1.1" style="shape-rendering:geometricPrecision; text-rendering:geometricPrecision; image-rendering:optimizeQuality; fill-rule:evenodd; clip-rule:evenodd"
viewBox="0 0 136 135"
 xmlns:xlink="http://www.w3.org/1999/xlink">
 <defs>
 </defs>
 <g id="Layer_x0020_1">
  <metadata id="CorelCorpID_0Corel-Layer"/>
  <g id="_2198636494320">
   <g id="_2416513896592">
    <g id="_1658371130448">
     <g id="_1546866485104">
      <g>
       <g>
        <polygon fill="none" stroke="#7F3F97" stroke-width="3.24279" points="28,63 108,63 108,73 28,73 "/>
        <polygon fill="none" stroke="#7F3F97" stroke-width="3.24279" points="36,63 99,63 99,73 36,73 "/>
       </g>
       <g>
        <polygon fill="none" stroke="#7F3F97" stroke-width="3.24279" points="17,73 119,73 119,86 17,86 "/>
        <polygon fill="none" stroke="#7F3F97" stroke-width="3.24279" points="28,73 108,73 108,86 28,86 "/>
       </g>
       <g>
        <polygon fill="none" stroke="#7F3F97" stroke-width="3.24279" points="12,86 124,86 124,99 12,99 "/>
        <polygon fill="none" stroke="#7F3F97" stroke-width="3.24279" points="24,86 111,86 111,99 24,99 "/>
       </g>
       <g>
        <polygon fill="none" stroke="#7F3F97" stroke-width="3.24279" points="4,99 131,99 131,112 4,112 "/>
        <polygon fill="none" stroke="#7F3F97" stroke-width="3.24279" points="18,99 117,99 117,112 18,112 "/>
       </g>
       <g>
        <rect fill="none" stroke="#7F3F97" stroke-width="3.24279" x="2" y="112" width="132.474" height="21.1169"/>
        <rect fill="none" stroke="#7F3F97" stroke-width="3.24279" x="17" y="112" width="103.603" height="21.1169"/>
       </g>
      </g>
      <path fill="none" stroke="#7F3F97" stroke-width="3.24279" d="M61 17c-1,2 -2,2 -5,2 -3,0 -10,1 -11,3 -2,1 -1,2 1,4 2,1 6,5 7,6 2,0 2,2 1,4 0,1 -1,7 -2,11 0,1 0,2 1,3 2,1 3,0 5,-1 1,-1 8,-4 8,-5 2,-1 2,-1 4,0 2,1 5,2 7,4 2,2 6,5 6,1 1,-4 -2,-9 -2,-14 0,-1 0,-1 1,-2l5 -5c1,-1 1,-1 2,-2 1,-1 3,-1 3,-3 0,-1 0,-1 -1,-2 -7,-2 -13,-2 -14,-2 -1,0 -1,0 -2,-2 -1,-2 -4,-12 -8,-12 -1,1 -5,10 -6,12l0 0 0 0z"/>
      <path fill="none" stroke="#7F3F97" stroke-width="2.16884" stroke-linecap="round" stroke-linejoin="round" d="M39 9l0 -2m2 -2l2 0m-4 -1l0 -3m-4 4l2 0"/>
      <path fill="none" stroke="#7F3F97" stroke-width="2.16884" stroke-linecap="round" stroke-linejoin="round" d="M15 49l0 -2m2 -2l1 0m-3 -2l0 -1m-5 3l3 0"/>
      <path fill="none" stroke="#7F3F97" stroke-width="2.16884" stroke-linecap="round" stroke-linejoin="round" d="M106 17l0 -2m2 -2l3 0m-5 -2l0 -2m-4 4l2 0"/>
      <path fill="none" stroke="#7F3F97" stroke-width="2.16884" stroke-linecap="round" stroke-linejoin="round" d="M129 47l0 -2m2 -2l2 0m-4 -1l0 -2m-4 3l2 0"/>
     </g>
    </g>
   </g>
  </g>
 </g>
</svg>
