<?xml version="1.0" encoding="UTF-8"?>
<!DOCTYPE svg PUBLIC "-//W3C//DTD SVG 1.1//EN" "http://www.w3.org/Graphics/SVG/1.1/DTD/svg11.dtd">
<!-- Creator: CorelDRAW X8 -->
<svg xmlns="http://www.w3.org/2000/svg" xml:space="preserve" width="0.897012in" height="0.883012in" version="1.1" style="shape-rendering:geometricPrecision; text-rendering:geometricPrecision; image-rendering:optimizeQuality; fill-rule:evenodd; clip-rule:evenodd"
viewBox="0 0 151 149"
 xmlns:xlink="http://www.w3.org/1999/xlink">
 <defs>
  <style type="text/css">
   <![CDATA[
    .str0 {stroke:#E73943;stroke-width:7.02686}
    .fil0 {fill:none}
   ]]>
  </style>
 </defs>
 <g id="Layer_x0020_1">
  <metadata id="CorelCorpID_0Corel-Layer"/>
  <g id="_1658388741008">
   <g id="_1546866475536">
    <path class="fil0 str0" d="M25 144l33 0c7,0 12,-5 12,-12l0 -34c0,-6 -8,-47 -45,-47 -6,0 -12,6 -12,12l0 53"/>
    <circle class="fil0 str0" cx="18" cy="131" r="15"/>
    <line class="fil0 str0" x1="70" y1="107" x2="47" y2= "107" />
    <line class="fil0 str0" x1="70" y1="126" x2="47" y2= "126" />
    <path class="fil0 str0" d="M62 73l0 -16c1,-4 3,-7 9,-7l57 0c7,0 9,-2 9,-9 0,-9 0,-18 0,-28 0,-13 -18,-13 -18,0l0 112"/>
    <polygon class="fil0 str0" points="90,145 147,145 146,140 119,125 91,140 "/>
   </g>
  </g>
 </g>
</svg>
