<?xml version="1.0" encoding="UTF-8"?>
<!DOCTYPE svg PUBLIC "-//W3C//DTD SVG 1.1//EN" "http://www.w3.org/Graphics/SVG/1.1/DTD/svg11.dtd">
<!-- Creator: CorelDRAW X8 -->
<svg xmlns="http://www.w3.org/2000/svg" xml:space="preserve" width="0.649819in" height="0.805583in" version="1.1" style="shape-rendering:geometricPrecision; text-rendering:geometricPrecision; image-rendering:optimizeQuality; fill-rule:evenodd; clip-rule:evenodd"
viewBox="0 0 74 91"
 xmlns:xlink="http://www.w3.org/1999/xlink">
 <defs>
 </defs>
 <g id="Layer_x0020_1">
  <metadata id="CorelCorpID_0Corel-Layer"/>
  <g id="_2198844220960">
   <g id="_2416479240320">
    <g id="_1658371121200">
     <g>
      <path fill="none" stroke="#7F3F97" stroke-width="2.34747" d="M6 1l62 0c2,0 4,3 4,5l0 79c0,3 -2,5 -4,5l-62 0c-2,0 -5,-2 -5,-5l0 -79c0,-2 3,-5 5,-5z"/>
      <circle fill="none" stroke="#7F3F97" stroke-width="2.34747" cx="37" cy="50" r="23"/>
      <path fill="none" stroke="#7F3F97" stroke-width="2.34747" d="M37 35c6,0 12,4 14,9 -2,2 -3,4 -3,6 0,3 1,6 3,8 -2,4 -8,8 -14,8 -8,0 -15,-7 -15,-16 0,-8 7,-15 15,-15l0 0 0 0z"/>
      <path fill="none" stroke="#7F3F97" stroke-width="2.34747" d="M29 53c-1,-5 0,-8 3,-10m3 -2c1,0 2,0 4,0"/>
      <line fill="none" stroke="#7F3F97" stroke-width="2.34747" x1="7" y1="15" x2="67" y2= "15" />
      <line fill="none" stroke="#7F3F97" stroke-width="2.34747" x1="8" y1="8" x2="15" y2= "8" />
      <line fill="none" stroke="#7F3F97" stroke-width="2.34747" x1="18" y1="8" x2="26" y2= "8" />
     </g>
     <circle fill="#7F3F97" cx="53" cy="8" r="2"/>
     <circle fill="#7F3F97" cx="59" cy="8" r="2"/>
     <circle fill="#7F3F97" cx="64" cy="8" r="2"/>
    </g>
   </g>
  </g>
 </g>
</svg>
