<?xml version="1.0" encoding="UTF-8"?>
<!DOCTYPE svg PUBLIC "-//W3C//DTD SVG 1.1//EN" "http://www.w3.org/Graphics/SVG/1.1/DTD/svg11.dtd">
<!-- Creator: CorelDRAW X8 -->
<svg xmlns="http://www.w3.org/2000/svg" xml:space="preserve" width="0.67285in" height="0.827673in" version="1.1" style="shape-rendering:geometricPrecision; text-rendering:geometricPrecision; image-rendering:optimizeQuality; fill-rule:evenodd; clip-rule:evenodd"
viewBox="0 0 193 238"
 xmlns:xlink="http://www.w3.org/1999/xlink">
 <defs>
  <style type="text/css">
   <![CDATA[
    .str0 {stroke:#E73943;stroke-width:11.9739}
    .fil0 {fill:none}
    .fil1 {fill:#E73943}
   ]]>
  </style>
 </defs>
 <g id="Layer_x0020_1">
  <metadata id="CorelCorpID_0Corel-Layer"/>
  <g id="_1658338045264">
   <g>
    <path class="fil0 str0" d="M19 6l156 0c7,0 12,6 12,13l0 200c0,7 -5,13 -12,13l-156 0c-7,0 -13,-6 -13,-13l0 -200c0,-7 6,-13 13,-13z"/>
    <circle class="fil0 str0" cx="98" cy="131" r="58"/>
    <path class="fil0 str0" d="M98 93c15,0 29,9 35,21 -5,5 -7,11 -7,17 0,7 2,13 7,18 -6,12 -20,21 -35,21 -21,0 -38,-18 -38,-39 0,-21 17,-38 38,-38z"/>
    <path class="fil0 str0" d="M76 137c-2,-11 2,-19 9,-25m8 -4c2,-2 5,-2 8,-2"/>
    <line class="fil0 str0" x1="21" y1="42" x2="173" y2= "42" />
    <line class="fil0 str0" x1="22" y1="24" x2="40" y2= "24" />
    <line class="fil0 str0" x1="50" y1="24" x2="69" y2= "24" />
   </g>
   <circle class="fil1" cx="138" cy="24" r="5"/>
   <circle class="fil1" cx="152" cy="24" r="5"/>
   <circle class="fil1" cx="165" cy="24" r="5"/>
  </g>
 </g>
</svg>
