<?xml version="1.0" encoding="UTF-8"?>
<!DOCTYPE svg PUBLIC "-//W3C//DTD SVG 1.1//EN" "http://www.w3.org/Graphics/SVG/1.1/DTD/svg11.dtd">
<!-- Creator: CorelDRAW X8 -->
<svg xmlns="http://www.w3.org/2000/svg" xml:space="preserve" width="0.887902in" height="0.871394in" version="1.1" style="shape-rendering:geometricPrecision; text-rendering:geometricPrecision; image-rendering:optimizeQuality; fill-rule:evenodd; clip-rule:evenodd"
viewBox="0 0 15191 14908"
 xmlns:xlink="http://www.w3.org/1999/xlink">
 <defs>
  <style type="text/css">
   <![CDATA[
    .str0 {stroke:#E73943;stroke-width:712.84;stroke-linecap:round;stroke-linejoin:round}
    .str1 {stroke:#E73943;stroke-width:237.03;stroke-linecap:round;stroke-linejoin:round}
    .fil0 {fill:none}
   ]]>
  </style>
 </defs>
 <g id="Layer_x0020_1">
  <metadata id="CorelCorpID_0Corel-Layer"/>
  <g id="_1658371130448">
   <g id="_1546866485104">
    <g>
     <g>
      <polygon class="fil0 str0" points="3232,6898 11963,6898 11963,8027 3232,8027 "/>
      <polygon class="fil0 str0" points="4157,6898 11039,6898 11039,8027 4157,8027 "/>
     </g>
     <g>
      <polygon class="fil0 str0" points="2000,8027 13196,8027 13196,9363 2000,9363 "/>
      <polygon class="fil0 str0" points="3232,8027 11963,8027 11963,9363 3232,9363 "/>
     </g>
     <g>
      <polygon class="fil0 str0" points="1486,9363 13709,9363 13709,10801 1486,10801 "/>
      <polygon class="fil0 str0" points="2822,9363 12374,9363 12374,10801 2822,10801 "/>
     </g>
     <g>
      <polygon class="fil0 str0" points="665,10801 14531,10801 14531,12239 665,12239 "/>
      <polygon class="fil0 str0" points="2205,10801 12990,10801 12990,12239 2205,12239 "/>
     </g>
     <g>
      <rect class="fil0 str0" x="356" y="12239" width="14478" height="2313"/>
      <rect class="fil0 str0" x="2000" y="12239" width="11321" height="2313"/>
     </g>
    </g>
    <path class="fil0 str0" d="M6827 1865c-102,205 -182,177 -513,205 -331,28 -1097,172 -1233,308 -178,124 -93,221 103,411 196,191 714,583 834,672 120,89 124,303 90,458 -33,155 -166,824 -205,1233 0,102 -36,201 103,308 216,119 308,0 513,-103 101,-74 845,-468 925,-514 165,-77 205,-102 411,0 205,103 475,239 718,411 244,173 676,535 719,103 44,-432 -205,-981 -205,-1541 0,-102 0,-102 103,-205l513 -514c103,-102 103,-102 206,-205 102,-103 308,-206 308,-411 0,-103 -12,-121 -103,-205 -707,-178 -1354,-217 -1541,-206 -102,0 -129,24 -205,-205 -76,-230 -477,-1336 -822,-1336 -182,83 -609,1117 -719,1336z"/>
    <path class="fil0 str1" d="M4465 1043l0 -308m205 -206l206 0m-411 -102l0 -308m-411 410l206 0"/>
    <path class="fil0 str1" d="M1794 5357l0 -205m206 -206l205 0m-411 -205l0 -206m-513 411l308 0"/>
    <path class="fil0 str1" d="M11758 1865l0 -206m205 -205l308 0m-513 -206l0 -308m-411 514l205 0"/>
    <path class="fil0 str1" d="M14326 5152l0 -206m205 -205l205 0m-410 -206l0 -205m-514 411l308 0"/>
   </g>
  </g>
 </g>
</svg>
