<?xml version="1.0" encoding="UTF-8"?>
<!DOCTYPE svg PUBLIC "-//W3C//DTD SVG 1.1//EN" "http://www.w3.org/Graphics/SVG/1.1/DTD/svg11.dtd">
<!-- Creator: CorelDRAW X8 -->
<svg xmlns="http://www.w3.org/2000/svg" xml:space="preserve" width="0.661583in" height="0.847772in" version="1.1" style="shape-rendering:geometricPrecision; text-rendering:geometricPrecision; image-rendering:optimizeQuality; fill-rule:evenodd; clip-rule:evenodd"
viewBox="0 0 108 139"
 xmlns:xlink="http://www.w3.org/1999/xlink">
 <defs>
  <style type="text/css">
   <![CDATA[
    .str0 {stroke:#E73943;stroke-width:6.8163}
    .fil0 {fill:none}
    .fil1 {fill:#E73943}
   ]]>
  </style>
 </defs>
 <g id="Layer_x0020_1">
  <metadata id="CorelCorpID_0Corel-Layer"/>
  <g id="_1658387561008">
   <g>
    <path class="fil0 str0" d="M82 91l0 31c0,7 -6,13 -14,13l-51 0c-7,0 -14,-6 -14,-13l0 -105c0,-7 7,-14 14,-14l51 0c8,0 14,7 14,14l0 14"/>
    <path class="fil0 str0" d="M73 90l0 22c0,3 -2,4 -4,4l-52 0c-3,0 -4,-1 -4,-4l0 -89c0,-3 1,-5 4,-5l52 0c2,0 4,2 4,5l0 7"/>
    <g id="_1549737204304">
     <path class="fil0 str0" d="M50 48c15,-16 40,-16 56,0"/>
     <path class="fil0 str0" d="M59 55c10,-10 27,-10 38,0"/>
     <path class="fil0 str0" d="M67 66c6,-6 16,-6 22,0"/>
     <circle class="fil0 str0" cx="78" cy="80" r="6"/>
    </g>
   </g>
   <g id="_1549737202768">
    <circle class="fil1" cx="43" cy="126" r="5"/>
    <path class="fil1" d="M29 9l28 0c1,0 2,1 2,2l0 0c0,1 -1,2 -2,2l-28 0c-1,0 -2,-1 -2,-2l0 0c0,-1 1,-2 2,-2z"/>
   </g>
  </g>
 </g>
</svg>
