<?xml version="1.0" encoding="UTF-8"?>
<!DOCTYPE svg PUBLIC "-//W3C//DTD SVG 1.1//EN" "http://www.w3.org/Graphics/SVG/1.1/DTD/svg11.dtd">
<!-- Creator: CorelDRAW X8 -->
<svg xmlns="http://www.w3.org/2000/svg" xml:space="preserve" width="0.87611in" height="0.867996in" version="1.1" style="shape-rendering:geometricPrecision; text-rendering:geometricPrecision; image-rendering:optimizeQuality; fill-rule:evenodd; clip-rule:evenodd"
viewBox="0 0 1199 1187"
 xmlns:xlink="http://www.w3.org/1999/xlink">
 <defs>
 </defs>
 <g id="Layer_x0020_1">
  <metadata id="CorelCorpID_0Corel-Layer"/>
  <g id="_2198636478896">
   <g id="_2416436688608">
    <g id="_1658388741008">
     <g id="_1546866475536">
      <path fill="none" stroke="#7F3F97" stroke-width="28.3301" d="M193 1155l269 0c56,0 96,-40 96,-96l0 -277c0,-48 -64,-381 -365,-381 -48,0 -96,50 -96,98l0 429"/>
      <circle fill="none" stroke="#7F3F97" stroke-width="28.3301" cx="137" cy="1051" r="123"/>
      <line fill="none" stroke="#7F3F97" stroke-width="28.3301" x1="558" y1="856" x2="371" y2= "856" />
      <line fill="none" stroke="#7F3F97" stroke-width="28.3301" x1="558" y1="1008" x2="371" y2= "1008" />
      <path fill="none" stroke="#7F3F97" stroke-width="28.3301" d="M494 579l0 -128c8,-32 24,-58 72,-58l461 0c58,0 74,-16 74,-72 0,-72 0,-147 0,-227 0,-106 -146,-106 -146,0l0 906"/>
      <polygon fill="none" stroke="#7F3F97" stroke-width="28.3301" points="720,1163 1181,1163 1173,1123 955,1000 728,1123 "/>
     </g>
    </g>
   </g>
  </g>
 </g>
</svg>
