<?xml version="1.0" encoding="UTF-8"?>
<!DOCTYPE svg PUBLIC "-//W3C//DTD SVG 1.1//EN" "http://www.w3.org/Graphics/SVG/1.1/DTD/svg11.dtd">
<!-- Creator: CorelDRAW X8 -->
<svg xmlns="http://www.w3.org/2000/svg" xml:space="preserve" width="0.722094in" height="0.79778in" version="1.1" style="shape-rendering:geometricPrecision; text-rendering:geometricPrecision; image-rendering:optimizeQuality; fill-rule:evenodd; clip-rule:evenodd"
viewBox="0 0 65 72"
 xmlns:xlink="http://www.w3.org/1999/xlink">
 <defs>
 </defs>
 <g id="Layer_x0020_1">
  <metadata id="CorelCorpID_0Corel-Layer"/>
  <g id="_2198635022976">
   <g id="_2416426230480">
    <g id="_2416475656336">
     <g id="_1658387557968">
      <g id="_1549737141104">
       <path stroke="#7F3F97" stroke-width="1.85798" fill="none" d="M33 1c13,0 15,9 15,16 2,2 2,3 2,6 0,3 -1,7 -4,7 -3,5 -8,9 -13,9 -6,0 -11,-4 -14,-9 -3,-2 -4,-4 -4,-7 0,-1 1,-3 2,-4 0,-9 2,-18 16,-18l0 0 0 0 0 0z"/>
       <path stroke="#7F3F97" stroke-width="1.85798" fill="none" d="M3 71l60 0c1,0 1,-1 1,-1l0 -14c0,-7 -15,-11 -22,-14l-5 16 -3 -9 3 -3 -9 0 3 4 -4 6 -5 -14c-6,3 -21,7 -21,14l0 14c0,0 2,1 2,1l0 0 0 0 0 0z"/>
       <rect stroke="#7F3F97" stroke-width="1.85798" fill="none" x="43" y="58" width="11.6905" height="7.05044"/>
       <path stroke="#7F3F97" stroke-width="1.85798" fill="none" d="M22 4c2,12 13,11 26,10"/>
       <path stroke="#7F3F97" stroke-width="1.85798" fill="none" d="M26 10c-2,4 -4,5 -9,6"/>
      </g>
     </g>
    </g>
   </g>
  </g>
 </g>
</svg>
