<?xml version="1.0" encoding="UTF-8"?>
<!DOCTYPE svg PUBLIC "-//W3C//DTD SVG 1.1//EN" "http://www.w3.org/Graphics/SVG/1.1/DTD/svg11.dtd">
<!-- Creator: CorelDRAW X8 -->
<svg xmlns="http://www.w3.org/2000/svg" xml:space="preserve" width="1.01683in" height="0.972547in" version="1.1" style="shape-rendering:geometricPrecision; text-rendering:geometricPrecision; image-rendering:optimizeQuality; fill-rule:evenodd; clip-rule:evenodd"
viewBox="0 0 317 304"
 xmlns:xlink="http://www.w3.org/1999/xlink">
 <defs>
 </defs>
 <g id="Layer_x0020_1">
  <metadata id="CorelCorpID_0Corel-Layer"/>
  <g id="_2198614167280">
   <g id="_1391630828704">
    <path fill="none" stroke="#7F3F97" stroke-width="6.46478" d="M218 58c6,27 17,59 -4,72 -17,11 -39,7 -39,-21 0,-26 19,-58 43,-58 23,-2 38,4 53,19 15,0 30,0 43,3 0,10 -2,23 -4,36 -4,13 -13,19 -26,21 -13,5 -23,7 -36,9 -4,38 -22,64 -49,79 0,26 2,49 2,75 -7,11 -15,8 -24,2 -4,-21 -8,-45 -15,-66 -23,13 -49,13 -77,-9 -10,-2 -21,-6 -32,-8 -6,25 -13,55 -19,83 -2,2 -26,2 -26,-9 5,-57 2,-134 9,-158 -13,-23 -15,-41 -13,-60"/>
    <path fill="none" stroke="#7F3F97" stroke-width="6.46478" d="M17 128c45,9 92,11 141,2"/>
    <path fill="none" stroke="#7F3F97" stroke-width="6.46478" d="M209 132c7,13 20,22 35,30"/>
    <line fill="none" stroke="#7F3F97" stroke-width="6.46478" x1="158" y1="87" x2="96" y2= "2" />
   </g>
  </g>
 </g>
</svg>
