<?xml version="1.0" encoding="UTF-8"?>
<!DOCTYPE svg PUBLIC "-//W3C//DTD SVG 1.1//EN" "http://www.w3.org/Graphics/SVG/1.1/DTD/svg11.dtd">
<!-- Creator: CorelDRAW X8 -->
<svg xmlns="http://www.w3.org/2000/svg" xml:space="preserve" width="0.645508in" height="0.824638in" version="1.1" style="shape-rendering:geometricPrecision; text-rendering:geometricPrecision; image-rendering:optimizeQuality; fill-rule:evenodd; clip-rule:evenodd"
viewBox="0 0 441 563"
 xmlns:xlink="http://www.w3.org/1999/xlink">
 <defs>
 </defs>
 <g id="Layer_x0020_1">
  <metadata id="CorelCorpID_0Corel-Layer"/>
  <g id="_2198614162576">
   <g id="_2416436715424">
    <g id="_1658387561008">
     <g>
      <path fill="none" stroke="#7F3F97" stroke-width="14.1368" d="M336 373l0 129c0,29 -25,54 -58,54l-213 0c-29,0 -58,-25 -58,-54l0 -437c0,-29 29,-58 58,-58l213 0c33,0 58,29 58,58l0 58"/>
      <path fill="none" stroke="#7F3F97" stroke-width="14.1368" d="M299 369l0 91c0,13 -9,17 -17,17l-217 0c-12,0 -16,-4 -16,-17l0 -370c0,-12 4,-21 16,-21l217 0c8,0 17,9 17,21l0 29"/>
      <g id="_1549737204304">
       <path fill="none" stroke="#7F3F97" stroke-width="14.1368" d="M203 195c63,-68 166,-68 233,0"/>
       <path fill="none" stroke="#7F3F97" stroke-width="14.1368" d="M241 224c41,-43 112,-43 157,0"/>
       <path fill="none" stroke="#7F3F97" stroke-width="14.1368" d="M274 270c25,-25 66,-25 91,0"/>
       <circle fill="none" stroke="#7F3F97" stroke-width="14.1368" cx="319" cy="328" r="25"/>
      </g>
     </g>
     <g id="_1549737202768">
      <circle fill="#7F3F97" cx="173" cy="519" r="21"/>
      <path fill="#7F3F97" d="M115 32l117 0c5,0 9,4 9,8l0 0c0,4 -4,9 -9,9l-117 0c-4,0 -8,-5 -8,-9l0 0c0,-4 4,-8 8,-8z"/>
     </g>
    </g>
   </g>
  </g>
 </g>
</svg>
